<svg width="1280" height="720" viewBox="0 0 1280 720" fill="none" xmlns="http://www.w3.org/2000/svg">
  <rect width="1280" height="720" fill="#F4F7FB"/>
  <rect x="28" y="24" width="230" height="672" rx="28" fill="#FCFDFF"/>
  <rect x="48" y="52" width="42" height="42" rx="14" fill="#0F766E"/>
  <text x="69" y="79" fill="white" font-family="Arial, sans-serif" font-size="22" font-weight="700" text-anchor="middle">W</text>
  <text x="106" y="70" fill="#102A43" font-family="Arial, sans-serif" font-size="20" font-weight="700">Workload</text>
  <text x="106" y="92" fill="#6B7A90" font-family="Arial, sans-serif" font-size="13">Project management</text>
  <rect x="44" y="140" width="198" height="58" rx="18" fill="#D7EEEB"/>
  <text x="78" y="176" fill="#0F766E" font-family="Arial, sans-serif" font-size="16" font-weight="700">Dashboard</text>
  <rect x="44" y="214" width="198" height="58" rx="18" fill="#FFFFFF"/>
  <text x="78" y="250" fill="#6B7A90" font-family="Arial, sans-serif" font-size="16" font-weight="600">Projects</text>
  <rect x="44" y="288" width="198" height="58" rx="18" fill="#FFFFFF"/>
  <text x="78" y="324" fill="#6B7A90" font-family="Arial, sans-serif" font-size="16" font-weight="600">Employees</text>
  <rect x="44" y="362" width="198" height="58" rx="18" fill="#FFFFFF"/>
  <text x="78" y="398" fill="#6B7A90" font-family="Arial, sans-serif" font-size="16" font-weight="600">Tasks</text>
  <rect x="286" y="24" width="966" height="88" rx="28" fill="white"/>
  <text x="324" y="64" fill="#102A43" font-family="Arial, sans-serif" font-size="28" font-weight="700">Dashboard</text>
  <text x="324" y="90" fill="#6B7A90" font-family="Arial, sans-serif" font-size="15">Kanban board with drag-and-drop task lanes</text>
  <rect x="1060" y="46" width="160" height="42" rx="14" fill="#FFFFFF" stroke="#D8E1EC"/>
  <text x="1090" y="72" fill="#6B7A90" font-family="Arial, sans-serif" font-size="14">All Projects</text>
  <g>
    <rect x="286" y="136" width="184" height="540" rx="28" fill="white"/>
    <rect x="286" y="136" width="184" height="72" rx="28" fill="#EEF1F5"/>
    <text x="312" y="180" fill="#475569" font-family="Arial, sans-serif" font-size="18" font-weight="700">Need to Do</text>
    <rect x="302" y="226" width="152" height="162" rx="22" fill="#FFFFFF" stroke="#E2E8F0"/>
    <rect x="314" y="238" width="128" height="72" rx="18" fill="#DCE9F8"/>
    <text x="314" y="332" fill="#102A43" font-family="Arial, sans-serif" font-size="15" font-weight="700">Product Listing Page</text>
    <text x="314" y="356" fill="#6B7A90" font-family="Arial, sans-serif" font-size="13">Lincoln Donin • Mar 15</text>
    <rect x="302" y="404" width="152" height="162" rx="22" fill="#FFFFFF" stroke="#E2E8F0"/>
    <rect x="314" y="416" width="128" height="72" rx="18" fill="#DDEFE9"/>
    <text x="314" y="510" fill="#102A43" font-family="Arial, sans-serif" font-size="15" font-weight="700">Shopping Cart</text>
    <text x="314" y="534" fill="#6B7A90" font-family="Arial, sans-serif" font-size="13">Lincoln Donin • Apr 01</text>
  </g>
  <g>
    <rect x="486" y="136" width="184" height="540" rx="28" fill="white"/>
    <rect x="486" y="136" width="184" height="72" rx="28" fill="#DDF0F8"/>
    <text x="512" y="180" fill="#0284C7" font-family="Arial, sans-serif" font-size="18" font-weight="700">In Progress</text>
    <rect x="502" y="226" width="152" height="162" rx="22" fill="#FFFFFF" stroke="#D5EAF4"/>
    <rect x="514" y="238" width="128" height="72" rx="18" fill="#D5EAF4"/>
    <text x="514" y="332" fill="#102A43" font-family="Arial, sans-serif" font-size="15" font-weight="700">Setup Auth System</text>
    <text x="514" y="356" fill="#6B7A90" font-family="Arial, sans-serif" font-size="13">Marilyn Ekstrom • Feb 28</text>
  </g>
  <g>
    <rect x="686" y="136" width="184" height="540" rx="28" fill="white"/>
    <rect x="686" y="136" width="184" height="72" rx="28" fill="#FCEDD8"/>
    <text x="712" y="180" fill="#D97706" font-family="Arial, sans-serif" font-size="18" font-weight="700">Need for Test</text>
    <rect x="702" y="226" width="152" height="162" rx="22" fill="#FFFFFF" stroke="#F2DFBE"/>
    <rect x="714" y="238" width="128" height="72" rx="18" fill="#F9E7C9"/>
    <text x="714" y="332" fill="#102A43" font-family="Arial, sans-serif" font-size="15" font-weight="700">Security Audit</text>
    <text x="714" y="356" fill="#6B7A90" font-family="Arial, sans-serif" font-size="13">Kaiya Rosser • May 01</text>
  </g>
  <g>
    <rect x="886" y="136" width="184" height="540" rx="28" fill="white"/>
    <rect x="886" y="136" width="184" height="72" rx="28" fill="#DCF3E2"/>
    <text x="912" y="180" fill="#15803D" font-family="Arial, sans-serif" font-size="18" font-weight="700">Completed</text>
    <rect x="902" y="226" width="152" height="162" rx="22" fill="#FFFFFF" stroke="#D2EED9"/>
    <rect x="914" y="238" width="128" height="72" rx="18" fill="#D7EEDF"/>
    <text x="914" y="332" fill="#102A43" font-family="Arial, sans-serif" font-size="15" font-weight="700">Design Homepage</text>
    <text x="914" y="356" fill="#6B7A90" font-family="Arial, sans-serif" font-size="13">Cristofer Siphron • Feb 15</text>
  </g>
  <g>
    <rect x="1086" y="136" width="166" height="540" rx="28" fill="white"/>
    <rect x="1086" y="136" width="166" height="72" rx="28" fill="#F9DFDF"/>
    <text x="1112" y="180" fill="#DC2626" font-family="Arial, sans-serif" font-size="18" font-weight="700">Re-open</text>
    <rect x="1100" y="226" width="138" height="162" rx="22" fill="#FFFFFF" stroke="#F0D0D0"/>
    <rect x="1112" y="238" width="114" height="72" rx="18" fill="#F2D8D8"/>
    <text x="1112" y="332" fill="#102A43" font-family="Arial, sans-serif" font-size="14" font-weight="700">Payroll Module</text>
    <text x="1112" y="356" fill="#6B7A90" font-family="Arial, sans-serif" font-size="12">Davis Arcand • Apr 30</text>
  </g>
</svg>
